<?xml version="1.0"?>
<svg version="1.1" id="topsvg"
xmlns="http://www.w3.org/2000/svg" xmlns:xlink="http://www.w3.org/1999/xlink"
xmlns:cml="http://www.xml-cml.org/schema" x="0" y="0" width="200px" height="200px" viewBox="0 0 100 100">
<title> - Open Babel Depiction</title>
<rect x="0" y="0" width="100" height="100" fill="white"/>
<g transform="translate(0,0)">
<svg width="100" height="100" x="0" y="0" viewBox="0 0 149.282 220"
font-family="sans-serif" stroke="rgb(0,0,0)" stroke-width="2"  stroke-linecap="round">
<line x1="74.6" y1="100.0" x2="74.6" y2="60.0" opacity="1.0" stroke="rgb(0,0,0)"  stroke-width="2.0"/>
<line x1="73.1" y1="57.4" x2="96.5" y2="43.9" opacity="1.0" stroke="rgb(0,0,0)"  stroke-width="2.0"/>
<line x1="76.1" y1="62.6" x2="99.5" y2="49.1" opacity="1.0" stroke="rgb(0,0,0)"  stroke-width="2.0"/>
<line x1="40.0" y1="120.0" x2="74.6" y2="100.0" opacity="1.0" stroke="rgb(0,0,0)"  stroke-width="2.0"/>
<line x1="48.8" y1="123.2" x2="73.0" y2="109.2" opacity="1.0" stroke="rgb(0,0,0)"  stroke-width="2.0"/>
<line x1="74.6" y1="100.0" x2="109.3" y2="120.0" opacity="1.0" stroke="rgb(0,0,0)"  stroke-width="2.0"/>
<line x1="109.3" y1="120.0" x2="109.3" y2="160.0" opacity="1.0" stroke="rgb(0,0,0)"  stroke-width="2.0"/>
<line x1="102.1" y1="126.0" x2="102.1" y2="154.0" opacity="1.0" stroke="rgb(0,0,0)"  stroke-width="2.0"/>
<line x1="109.3" y1="160.0" x2="74.6" y2="180.0" opacity="1.0" stroke="rgb(0,0,0)"  stroke-width="2.0"/>
<line x1="74.6" y1="180.0" x2="40.0" y2="160.0" opacity="1.0" stroke="rgb(0,0,0)"  stroke-width="2.0"/>
<line x1="73.0" y1="170.8" x2="48.8" y2="156.8" opacity="1.0" stroke="rgb(0,0,0)"  stroke-width="2.0"/>
<line x1="40.0" y1="160.0" x2="40.0" y2="120.0" opacity="1.0" stroke="rgb(0,0,0)"  stroke-width="2.0"/>
<text x="103.282032" y="48.000000" fill="rgb(255,12,12)" stroke-width="0" font-weight="bold" font-size="16" >O</text>
</svg>
</g>
<text font-size="18.000000" fill ="black" font-family="sans-serif"
x="10.000000" y="20.000000" ></text>
</svg>
